<?xml version="1.0" standalone="no"?>
<!DOCTYPE svg PUBLIC "-//W3C//DTD SVG 20010904//EN"
 "http://www.w3.org/TR/2001/REC-SVG-20010904/DTD/svg10.dtd">
<svg version="1.0" xmlns="http://www.w3.org/2000/svg"
 width="960.000000pt" height="960.000000pt" viewBox="0 0 960.000000 960.000000"
 preserveAspectRatio="xMidYMid meet">
<metadata>
Created by potrace 1.14, written by Peter Selinger 2001-2017
</metadata>
<g transform="translate(0.000000,960.000000) scale(0.100000,-0.100000)"
fill="#000000" stroke="none">
<path d="M4902 9491 c-59 -60 -213 -218 -342 -351 -129 -133 -289 -297 -355
-365 -66 -68 -203 -208 -303 -311 -101 -104 -307 -315 -457 -469 -505 -518
-555 -570 -555 -573 0 -2 47 -52 104 -111 157 -160 314 -320 606 -621 146
-150 343 -351 438 -449 158 -162 308 -315 793 -813 l177 -182 103 106 c57 58
235 240 394 403 160 164 346 355 415 426 69 70 240 246 380 390 140 144 300
308 355 364 55 56 185 189 288 295 l188 193 -45 46 c-24 25 -118 121 -208 213
-90 92 -275 283 -413 424 -137 142 -304 312 -370 380 -66 67 -219 224 -340
348 -121 125 -300 309 -398 409 -98 100 -217 221 -263 269 l-85 88 -107 -109z
m134 -970 c10 -10 145 -148 299 -306 344 -354 458 -470 636 -651 l138 -141
-167 -170 c-92 -94 -282 -288 -422 -432 -426 -437 -500 -511 -511 -511 -5 0
-43 35 -84 78 -40 42 -147 152 -237 243 -90 92 -278 285 -418 429 -140 144
-276 284 -302 311 -27 26 -48 50 -48 52 0 3 48 54 108 115 105 108 253 259
735 755 133 136 244 247 247 247 4 0 15 -8 26 -19z"/>
<path d="M2348 6874 c-73 -75 -180 -185 -238 -244 -58 -59 -127 -131 -153
-159 -26 -28 -52 -51 -57 -51 -6 0 -10 -3 -10 -8 0 -8 -79 -90 -1027 -1061
-105 -108 -261 -268 -346 -356 l-155 -160 41 -41 c23 -23 152 -155 287 -294
135 -139 311 -320 393 -403 81 -83 147 -155 147 -160 0 -6 3 -8 6 -5 3 3 25
-15 49 -41 55 -59 222 -231 574 -591 329 -337 473 -484 560 -575 l64 -66 131
134 c72 74 257 264 411 422 154 158 323 331 375 385 613 628 1124 1154 1174
1208 l30 32 -50 49 c-27 27 -168 171 -314 321 -146 150 -317 326 -380 390 -63
65 -209 215 -325 335 -115 119 -280 287 -365 374 -400 409 -665 683 -668 692
-2 5 -7 9 -12 9 -5 0 -68 -61 -142 -136z m304 -1086 c294 -301 662 -680 790
-812 70 -72 128 -135 128 -141 0 -5 -91 -103 -203 -216 -111 -114 -228 -234
-259 -267 -32 -33 -58 -58 -58 -55 0 3 -10 -7 -22 -23 -13 -16 -63 -70 -113
-120 -49 -50 -163 -165 -251 -256 -89 -91 -167 -168 -173 -173 -12 -7 -29 9
-521 515 -126 129 -298 305 -382 391 -84 86 -164 168 -177 182 l-23 26 163
166 c90 92 214 218 274 280 542 554 651 665 660 665 5 0 80 -73 167 -162z"/>
<path d="M7475 6552 c-2 -2 -30 -5 -62 -7 -32 -3 -68 -6 -80 -9 -17 -4 -103
-18 -123 -21 -3 0 -11 -4 -18 -9 -7 -4 -16 -5 -19 -2 -3 3 -12 1 -20 -5 -7 -6
-13 -8 -13 -4 0 4 -7 2 -15 -5 -8 -7 -15 -10 -15 -7 0 3 -26 -3 -57 -14 -146
-50 -398 -179 -411 -211 -2 -4 -10 -8 -18 -8 -8 0 -14 -4 -14 -8 0 -5 -10 -14
-22 -19 -53 -25 -254 -222 -323 -318 -11 -15 -24 -32 -30 -39 -24 -28 -55 -76
-55 -86 0 -5 -4 -10 -8 -10 -13 0 -172 -325 -172 -350 0 -6 -9 -35 -19 -65
-11 -30 -18 -55 -15 -55 2 0 -1 -11 -6 -26 -6 -14 -12 -37 -15 -52 -2 -15 -9
-50 -14 -78 -28 -148 -33 -484 -7 -554 3 -8 7 -33 10 -55 14 -132 87 -343 172
-504 47 -89 110 -189 128 -206 6 -5 20 -23 30 -39 44 -68 295 -321 296 -298 0
4 5 -1 11 -10 5 -10 16 -18 24 -18 7 0 15 -4 17 -9 4 -10 122 -87 198 -128
119 -64 336 -140 445 -157 22 -3 51 -8 65 -10 130 -25 375 -25 501 -1 13 3 41
7 64 10 38 6 162 39 195 52 8 4 18 7 23 8 4 2 8 3 10 5 1 1 9 3 18 5 9 1 45
16 80 31 206 90 367 202 523 360 100 101 156 167 156 183 0 6 4 11 8 11 15 0
114 162 168 275 52 110 131 341 120 352 -6 6 -715 8 -719 2 -8 -13 -34 -76
-35 -83 0 -5 -4 -12 -9 -15 -5 -3 -20 -25 -33 -48 -13 -24 -27 -43 -31 -43 -4
0 -11 -9 -14 -21 -17 -53 -289 -289 -333 -289 -7 0 -12 -5 -12 -10 0 -6 -3 -9
-7 -8 -5 1 -26 -6 -48 -16 -22 -10 -47 -19 -56 -21 -8 -2 -32 -10 -53 -19 -20
-8 -40 -15 -44 -15 -4 1 -10 0 -14 -1 -15 -5 -23 -6 -73 -14 -88 -13 -105 -14
-111 -4 -4 5 -10 5 -17 0 -15 -12 -120 -5 -207 13 -192 39 -361 134 -507 283
-46 46 -83 88 -83 92 0 5 -6 15 -13 22 -22 23 -121 198 -111 198 2 0 -2 13
-10 28 -21 40 -46 142 -62 247 -6 39 -6 204 -1 230 3 11 8 45 12 75 8 60 36
153 66 217 10 24 19 45 19 48 0 7 95 161 112 180 145 168 287 268 470 329 109
37 177 47 298 46 159 -1 293 -31 415 -93 22 -11 40 -18 40 -16 0 2 7 -2 15 -9
8 -7 36 -26 62 -43 26 -17 61 -43 78 -59 16 -15 30 -26 30 -23 0 8 98 -97 128
-137 15 -19 30 -37 33 -40 13 -10 109 -184 109 -197 0 -16 -29 -15 380 -15
l335 -1 -2 29 c-2 31 -34 156 -43 164 -3 3 -7 14 -8 25 -2 11 -8 24 -13 30 -5
5 -9 15 -9 22 0 15 -99 225 -110 233 -4 3 -13 16 -20 30 -27 52 -103 160 -113
160 -6 0 -8 2 -5 5 10 10 -145 174 -243 256 -30 25 -83 65 -119 90 -36 24 -68
49 -72 54 -4 6 -8 6 -8 2 0 -5 -12 0 -27 11 -45 32 -190 102 -197 95 -3 -4 -6
-1 -6 5 0 7 -3 11 -7 10 -7 -2 -69 19 -128 42 -48 19 -235 57 -326 66 -73 6
-249 11 -254 6z"/>
<path d="M4784 4184 c-126 -130 -285 -294 -354 -364 -69 -70 -253 -259 -410
-420 -157 -161 -330 -339 -385 -395 -55 -56 -221 -227 -370 -380 -148 -152
-294 -301 -323 -330 l-52 -53 182 -187 c350 -358 403 -413 449 -461 26 -27 55
-56 65 -65 11 -9 119 -120 240 -245 122 -126 280 -288 350 -361 71 -72 237
-242 369 -378 437 -449 465 -476 475 -470 6 4 46 43 90 88 43 45 139 143 212
218 73 75 268 275 433 444 165 169 343 352 395 405 52 54 221 227 375 385 154
158 353 362 442 454 90 91 163 169 163 173 0 3 -80 88 -177 188 -98 100 -230
235 -293 300 -63 65 -234 241 -380 390 -146 149 -317 325 -380 390 -63 65
-239 244 -390 400 -151 155 -325 333 -386 395 l-111 114 -229 -235z m341 -931
c58 -60 201 -206 318 -326 210 -216 464 -476 599 -613 l69 -71 -73 -75 c-40
-42 -199 -205 -353 -362 -154 -158 -368 -377 -475 -487 l-195 -199 -25 23
c-14 13 -158 160 -320 327 -285 292 -443 454 -651 666 -54 56 -99 103 -99 105
0 4 39 44 550 569 147 151 328 337 401 412 74 76 137 138 141 138 5 0 55 -48
113 -107z"/>
</g>
</svg>
