<?xml version="1.0" encoding="UTF-8"?>
<svg width="63px" height="34px" viewBox="0 0 63 34" version="1.1" xmlns="http://www.w3.org/2000/svg" xmlns:xlink="http://www.w3.org/1999/xlink">
    <!-- Generator: Sketch 53.2 (72643) - https://sketchapp.com -->
    <title>Icons / Eye</title>
    <desc>Created with Sketch.</desc>
    <g id="Icons-/-Eye" stroke="none" stroke-width="1" fill="none" fill-rule="evenodd">
        <g id="Group" fill="#000000" fill-rule="nonzero">
            <path d="M31.5,0.286384615 C14.6389687,0.286384615 1.2928125,15.2862692 0.73303125,15.9250769 C0.1929375,16.541 0.1929375,17.4596538 0.73303125,18.0762308 C1.2928125,18.7143846 14.6389687,33.7136154 31.5,33.7136154 C48.3610313,33.7136154 61.7071875,18.7143846 62.2669688,18.0755769 C62.8070625,17.4596538 62.8070625,16.5403462 62.2669688,15.9244231 C61.7071875,15.2862692 48.3610313,0.286384615 31.5,0.286384615 Z M31.5,30.4443846 C18.6407813,30.4443846 7.562625,20.3607692 4.22690625,16.9993462 C7.557375,13.6353077 18.6151875,3.55561538 31.5,3.55561538 C44.3592188,3.55561538 55.437375,13.6392308 58.7730938,17.0013077 C55.442625,20.3646923 44.3848125,30.4443846 31.5,30.4443846 Z" id="Shape"></path>
            <path d="M31.5,7.15307692 C26.0505,7.15307692 21.616875,11.5704615 21.616875,17 C21.616875,22.4295385 26.0498437,26.8469231 31.4993437,26.8469231 C36.9488437,26.8469231 41.3824687,22.4295385 41.3824687,17 C41.3824687,11.5704615 36.9488437,7.15307692 31.5,7.15307692 Z M31.5,23.5776923 C27.8604375,23.5776923 24.8987812,20.6268846 24.8987812,17 C24.8987812,13.3737692 27.8604375,10.4229615 31.5,10.4229615 C35.1402187,10.4229615 38.101875,13.3737692 38.101875,17 C38.1012187,20.6268846 35.1395625,23.5776923 31.5,23.5776923 Z" id="Shape"></path>
        </g>
    </g>
</svg>